:SAMPLES-PER-SECOND 30
:FULLY-SPECIFIED
:DEGREES
245
root  9.22519 39.4807 -29.772 134.737 81.3638 138.136
RightUpLeg  -15.327 -12.7849 -10.9308
RightLeg  0.818335 -10.3112 5.36324
RightFoot  9.59909 -1.90728 10.6025
RightToes  0.000482159 0.542163 -0.142577
Spine  22.521 -1.43751 -1.73205
Spine1  10.6145 -1.34197 -2.02417
HEad  20.7178 11.0722 -5.5705
LeftShoulder1  8.00103 -12.7397 -42.8154
LeftArm  -19.7085 10.3627 -18.422
LeftForeArm  36.5056 -56.2214 -13.6728
LeftHand  -0.25398 0.0180481 5.50724
RightShoulder  6.45587 10.7402 39.2247
RightArm  8.68316 -23.2874 34.5899
RightForeArm  -11.5113 20.1198 6.10482
RightHand  -1.92301 4.36539 -22.9396
LeftUpLeg  1.67389 12.8717 -3.31742
LeftLeg  18.5417 0.753135 -0.514791
LeftFoot  -14.9198 0.0598876 -0.941714
LeftToes  1.06247e-005 4.65855e-005 -8.18501e-006
246
root  8.07269 39.7406 -30.011 127.159 83.3494 131.132
RightUpLeg  -17.0175 -15.2398 -8.60873
RightLeg  8.96262 -6.39279 2.39646
RightFoot  7.28136 -1.24148 7.85804
RightToes  0.000482159 0.542163 -0.142577
Spine  22.6747 -1.21288 0.735909
Spine1  10.3622 0.026578 -4.2574
HEad  19.4741 8.91288 -6.79106
LeftShoulder1  7.94316 -12.6319 -42.7879
LeftArm  -19.0775 10.7183 -19.0938
LeftForeArm  34.2336 -52.3932 -11.8269
LeftHand  -0.25398 0.0180481 5.50724
RightShoulder  6.51157 10.8517 39.2596
RightArm  5.33701 -22.7551 35.0967
RightForeArm  -9.83262 18.6816 6.42779
RightHand  -1.79158 3.75949 -22.7704
LeftUpLeg  1.42899 11.6297 -3.07411
LeftLeg  16.6213 3.96949 -0.892655
LeftFoot  -13.0169 0.068317 -0.619009
LeftToes  1.06247e-005 4.65855e-005 -8.18501e-006
247
root  7.03684 39.9587 -30.221 112.901 85.2247 117.443
RightUpLeg  -18.1004 -17.1372 -6.08009
RightLeg  18.6107 -1.98123 -1.33107
RightFoot  5.16083 -0.708247 5.13417
RightToes  0.000482159 0.542163 -0.142577
Spine  22.6343 -0.820328 2.2524
Spine1  9.84868 1.03753 -5.39387
HEad  18.3009 7.67609 -7.60779
LeftShoulder1  7.87707 -12.4095 -43.0396
LeftArm  -18.8005 12.588 -20.2463
LeftForeArm  32.1083 -48.4076 -10.2338
LeftHand  -0.25398 0.0180481 5.50724
RightShoulder  6.52822 11.0161 38.8776
RightArm  5.02744 -21.6338 34.8848
RightForeArm  -9.42091 17.8001 6.75057
RightHand  -1.59659 3.04123 -22.0199
LeftUpLeg  1.52362 8.84688 -2.71269
LeftLeg  14.3814 9.11457 -1.44073
LeftFoot  -11.5282 0.0694505 -0.340621
LeftToes  1.06247e-005 4.65855e-005 -8.18501e-006
248
root  6.08564 40.1399 -30.3565 97.6729 86.1878 102.114
RightUpLeg  -17.6871 -12.0678 -6.90862
RightLeg  27.5622 -6.14411 -3.70053
RightFoot  2.57968 -0.44908 3.82979
RightToes  0.000482159 0.542163 -0.142577
Spine  21.8437 -0.405358 2.31396
Spine1  9.01414 1.28067 -4.91387
HEad  17.2773 6.99442 -7.33574
LeftShoulder1  7.86389 -12.1785 -43.6322
LeftArm  -18.0824 15.4315 -21.0907
LeftForeArm  29.7464 -44.3415 -8.88667
LeftHand  -0.25398 0.0180481 5.50724
RightShoulder  6.45187 10.9606 38.5374
RightArm  6.64708 -20.3621 34.0942
RightForeArm  -9.53343 18.2814 6.63213
RightHand  -1.42355 2.50111 -20.9992
LeftUpLeg  0.892658 6.95715 -2.42158
LeftLeg  12.5032 12.3875 -2.05831
LeftFoot  -10.1984 0.0743836 -1.20868
LeftToes  1.06247e-005 4.65855e-005 -8.18501e-006
249
root  5.20699 40.3112 -30.4365 89.1027 86.6983 93.1012
RightUpLeg  -16.6933 -10.4623 -7.05465
RightLeg  35.3731 -8.44888 -6.6364
RightFoot  -0.262155 -0.292914 2.99904
RightToes  0.000482159 0.542163 -0.142577
Spine  20.6421 -0.247158 2.04871
Spine1  8.08075 1.0585 -3.89207
HEad  16.3164 6.55385 -6.20303
LeftShoulder1  7.89366 -12.0287 -44.2499
LeftArm  -16.273 18.3151 -21.4882
LeftForeArm  26.8415 -39.6165 -7.56532
LeftHand  -0.25398 0.0180481 5.50724
RightShoulder  6.29191 10.6334 38.4435
RightArm  7.54182 -19.2787 33.4116
RightForeArm  -9.69046 20.1424 5.96647
RightHand  -1.37557 2.43019 -20.4904
LeftUpLeg  0.12804 5.98229 -2.00973
LeftLeg  10.467 13.8421 -2.73283
LeftFoot  -9.25568 0.10566 -2.79515
LeftToes  1.06247e-005 4.65855e-005 -8.18501e-006
250
root  4.39483 40.4001 -30.4827 84.8462 86.8427 88.7009
RightUpLeg  -14.2527 -10.3629 -7.36106
RightLeg  41.1623 -9.41021 -8.95734
RightFoot  -2.90675 -0.17146 2.04806
RightToes  0.000482159 0.542163 -0.142577
Spine  19.5371 -0.303036 1.74721
Spine1  7.43051 0.78965 -3.36983
HEad  15.2369 6.20801 -4.94743
LeftShoulder1  7.93552 -11.9772 -44.6503
LeftArm  -13.5458 20.5246 -21.8904
LeftForeArm  23.4788 -33.728 -6.14133
LeftHand  -0.25398 0.0180481 5.50724
RightShoulder  6.11892 10.2626 38.3883
RightArm  5.94054 -18.4002 33.3026
RightForeArm  -9.87655 22.7267 5.51007
RightHand  -1.50958 2.95699 -21.0527
LeftUpLeg  -0.42573 5.30535 -1.85523
LeftLeg  8.86707 15.0264 -3.23844
LeftFoot  -9.0283 0.135633 -4.05533
LeftToes  1.06247e-005 4.65855e-005 -8.18501e-006
